<svg width="28" height="29" viewBox="0 0 28 29" fill="none" xmlns="http://www.w3.org/2000/svg">
<path d="M27.9288 8.23367C27.8632 6.74564 27.6226 5.72262 27.2779 4.83617C26.9223 3.89522 26.3752 3.05279 25.6584 2.35248C24.9581 1.64126 24.1101 1.08862 23.1801 0.738569C22.2885 0.393861 21.2708 0.153227 19.7828 0.0876195C18.2836 0.0164554 17.8077 0 14.0054 0C10.2032 0 9.72727 0.0164554 8.23367 0.0820632C6.74564 0.147671 5.72262 0.388518 4.83638 0.733012C3.89522 1.08862 3.05279 1.63571 2.35248 2.35248C1.64126 3.05279 1.08883 3.90078 0.738569 4.83083C0.393861 5.72262 0.153227 6.74008 0.0876195 8.22812C0.0164554 9.72727 0 10.2032 0 14.0054C0 17.8077 0.0164554 18.2836 0.0820632 19.7772C0.147671 21.2653 0.388518 22.2883 0.733226 23.1747C1.08883 24.1157 1.64126 24.9581 2.35248 25.6584C3.05279 26.3696 3.90078 26.9223 4.83083 27.2723C5.72262 27.617 6.74008 27.8577 8.22833 27.9233C9.72171 27.9891 10.1978 28.0053 14.0001 28.0053C17.8024 28.0053 18.2783 27.9891 19.7719 27.9233C21.2599 27.8577 22.2829 27.617 23.1692 27.2723C25.0513 26.5447 26.5393 25.0566 27.267 23.1747C27.6115 22.2829 27.8523 21.2653 27.9179 19.7772C27.9835 18.2836 28 17.8077 28 14.0054C28 10.2032 27.9944 9.72727 27.9288 8.23367ZM25.4069 19.6678C25.3466 21.0355 25.1169 21.7741 24.9254 22.2665C24.4548 23.4865 23.4865 24.4548 22.2665 24.9254C21.7741 25.1169 21.0302 25.3466 19.6678 25.4067C18.1907 25.4725 17.7477 25.4887 14.011 25.4887C10.2744 25.4887 9.82578 25.4725 8.35399 25.4067C6.98627 25.3466 6.2477 25.1169 5.75532 24.9254C5.14818 24.701 4.59554 24.3454 4.14697 23.8804C3.68194 23.4263 3.32634 22.8792 3.10195 22.272C2.91046 21.7797 2.68073 21.0355 2.62068 19.6734C2.55486 18.1962 2.53862 17.753 2.53862 14.0163C2.53862 10.2797 2.55486 9.83113 2.62068 8.35955C2.68073 6.99183 2.91046 6.25326 3.10195 5.76088C3.32634 5.15352 3.68194 4.60109 4.15252 4.15231C4.60644 3.68729 5.15352 3.33168 5.76088 3.1075C6.25326 2.91602 6.99738 2.68629 8.35955 2.62602C9.83668 2.56041 10.2799 2.54396 14.0163 2.54396C17.7586 2.54396 18.2016 2.56041 19.6734 2.62602C21.0411 2.68629 21.7797 2.91602 22.272 3.1075C22.8792 3.33168 23.4318 3.68729 23.8804 4.15231C24.3454 4.60644 24.701 5.15352 24.9254 5.76088C25.1169 6.25326 25.3466 6.99717 25.4069 8.35955C25.4725 9.83668 25.489 10.2797 25.489 14.0163C25.489 17.753 25.4725 18.1907 25.4069 19.6678Z" fill="black"/>
<path d="M14.0057 6.81128C10.034 6.81128 6.81152 10.0335 6.81152 14.0055C6.81152 17.9774 10.034 21.1997 14.0057 21.1997C17.9777 21.1997 21.1999 17.9774 21.1999 14.0055C21.1999 10.0335 17.9777 6.81128 14.0057 6.81128ZM14.0057 18.6722C11.4291 18.6722 9.33903 16.5824 9.33903 14.0055C9.33903 11.4286 11.4291 9.33878 14.0057 9.33878C16.5826 9.33878 18.6724 11.4286 18.6724 14.0055C18.6724 16.5824 16.5826 18.6722 14.0057 18.6722Z" fill="black"/>
<path d="M23.1639 6.52681C23.1639 7.45429 22.4119 8.20632 21.4842 8.20632C20.5567 8.20632 19.8047 7.45429 19.8047 6.52681C19.8047 5.59911 20.5567 4.84729 21.4842 4.84729C22.4119 4.84729 23.1639 5.59911 23.1639 6.52681Z" fill="black"/>
</svg>
