<svg width="26" height="26" viewBox="0 0 26 26" fill="none" xmlns="http://www.w3.org/2000/svg">
<path d="M18.9658 15.4994L18.9561 15.5807C16.5739 14.3934 16.3247 14.2352 16.0171 14.6967C15.8036 15.0163 15.1818 15.741 14.9944 15.9555C14.8048 16.1668 14.6163 16.183 14.2946 16.0368C13.9696 15.8743 12.9264 15.533 11.6914 14.428C10.7294 13.5668 10.0838 12.5106 9.89309 12.1856C9.57568 11.6374 10.2397 11.5594 10.8442 10.4154C10.9526 10.188 10.8973 10.0092 10.8172 9.84779C10.7359 9.6853 10.0892 8.09282 9.81834 7.458C9.55834 6.82535 9.29076 6.90551 9.09035 6.90551C8.46636 6.85135 8.01029 6.86001 7.60838 7.27817C5.85991 9.19997 6.30082 11.1824 7.79688 13.2906C10.737 17.1385 12.3035 17.847 15.1677 18.8306C15.9412 19.0765 16.6465 19.0419 17.2044 18.9617C17.8262 18.8631 19.1186 18.1806 19.3883 17.4169C19.6646 16.6532 19.6646 16.0194 19.5833 15.8732C19.5032 15.7269 19.2908 15.6457 18.9658 15.4994Z" fill="black"/>
<path d="M22.2296 3.73682C13.9 -4.31545 0.114831 1.52469 0.109415 12.8843C0.109415 15.1549 0.704154 17.3692 1.8373 19.3246L0 26L6.86279 24.2104C15.4264 28.8361 25.9952 22.6937 25.9995 12.8908C25.9995 9.45021 24.6562 6.21219 22.2133 3.77907L22.2296 3.73682ZM23.8351 12.8551C23.8286 21.124 14.7515 26.2882 7.57236 22.0676L7.18237 21.8357L3.11994 22.892L4.20867 18.9433L3.94976 18.5371C-0.517824 11.4251 4.61492 2.13026 13.0778 2.13026C15.9529 2.13026 18.6514 3.25149 20.6837 5.28271C22.7149 7.29659 23.8351 9.99512 23.8351 12.8551Z" fill="black"/>
</svg>
