<svg width="28" height="31" viewBox="0 0 28 31" fill="none" xmlns="http://www.w3.org/2000/svg">
<path d="M13.623 0C9.116 0 5.44922 3.66678 5.44922 8.17383C5.44922 12.6809 9.116 16.3477 13.623 16.3477C18.1301 16.3477 21.7969 12.6809 21.7969 8.17383C21.7969 3.66678 18.1301 0 13.623 0ZM13.623 14.5313C10.1176 14.5313 7.26562 11.6793 7.26562 8.17383C7.26562 4.66835 10.1176 1.81641 13.623 1.81641C17.1285 1.81641 19.9805 4.66835 19.9805 8.17383C19.9805 11.6793 17.1285 14.5313 13.623 14.5313Z" fill="white"/>
<path d="M23.7929 21.6875C21.5551 19.4153 18.5884 18.1639 15.4395 18.1639H11.8066C8.65772 18.1639 5.69104 19.4153 3.45323 21.6875C1.22638 23.9485 0 26.9331 0 30.0917C0 30.5932 0.406633 30.9999 0.908203 30.9999H26.3379C26.8395 30.9999 27.2461 30.5932 27.2461 30.0917C27.2461 26.9331 26.0197 23.9485 23.7929 21.6875ZM1.85637 29.1835C2.31138 24.0318 6.60028 19.9803 11.8066 19.9803H15.4395C20.6458 19.9803 24.9347 24.0318 25.3897 29.1835H1.85637Z" fill="white"/>
</svg>
